<svg width="90" height="90" viewBox="0 0 90 90" xmlns="http://www.w3.org/2000/svg"><g fill="none" fill-rule="evenodd"><path d="M56.446 66.535c-.624 0-1.324-.18-1.974-.505l-9.277-4.646-9.334 4.639a4.172 4.172 0 0 1-1.958.48 4.16 4.16 0 0 1-2.491-.816c-1.307-.982-1.976-2.681-1.667-4.229l1.909-9.916-7.317-6.828a4.514 4.514 0 0 1-1.138-4.363l.015-.05c.532-1.596 1.851-2.715 3.451-2.93l10.167-1.85 4.563-9.279c.733-1.47 2.224-2.413 3.8-2.413 1.645 0 3.174.98 3.815 2.44l4.549 9.25 10.168 1.779a4.143 4.143 0 0 1 3.388 2.963 4.293 4.293 0 0 1-1.06 4.378l-.025.025-7.296 6.88 1.844 9.933c.297 1.589-.334 3.193-1.648 4.193a3.912 3.912 0 0 1-2.484.865Zm-11.247-8.498 9.855 4.935c.29.146.623.238.852.238.351 0 .677-.109.917-.309l.044-.037c.56-.42.834-1.09.711-1.744l-1.983-10.697 7.845-7.397a1.793 1.793 0 0 0 .432-1.832l-.021-.068a1.616 1.616 0 0 0-1.341-1.17l-.045-.008-10.855-1.9-4.885-9.934c-.237-.555-.88-.958-1.53-.958-.64 0-1.25.4-1.56 1.018l-4.854 9.87L27.87 40.03c-.663.083-1.178.524-1.416 1.211-.169.628.031 1.385.492 1.857l7.854 7.327-2.06 10.703c-.125.619.168 1.331.71 1.738.271.204.623.317.992.317.284 0 .557-.066.792-.193l.033-.02 9.932-4.932Z" fill="#353F52" fill-rule="nonzero"/><circle stroke="#D8D8D8" cx="45" cy="45" r="44"/></g></svg>