<svg width="54" height="54" viewBox="0 0 54 54" xmlns="http://www.w3.org/2000/svg"><g fill="none" fill-rule="evenodd"><path fill="#FFF" d="M0 0h54v54H0z"/><path d="M39.285 51c-6.47 0-11.714-5.245-11.714-11.715s5.244-11.714 11.714-11.714C45.755 27.57 51 32.815 51 39.285 51 45.755 45.755 51 39.285 51ZM25.042 36.446c-.107-.061-.217-.116-.306-.205l-1.126-1.825c-.801-.8-1.173-1.247-2.305-1.246h-.01a4.267 4.267 0 0 0-3.015 1.235l-1.188 1.873a1.4 1.4 0 0 1-1.956 0l-1.907-1.87a4.264 4.264 0 0 0-3.014-1.237h-.01a4.264 4.264 0 0 0-2.992 1.22l-2.992 2.683a1.453 1.453 0 0 0 1.94 2.163l3.017-2.705.055-.051a1.4 1.4 0 0 1 1.96-.004l1.905 1.872a4.28 4.28 0 0 0 3.018 1.236c1.135 0 1.491-.44 2.3-1.236l1.904-1.872a1.401 1.401 0 0 1 1.962.004l1.123 1.825c.486.482.36.816.993 1.021a14.68 14.68 0 0 0-.114 1.746c0 1.003.102 1.982.294 2.929H8.858A5.858 5.858 0 0 1 3 38.144V8.857A5.857 5.857 0 0 1 8.857 3h29.287a5.858 5.858 0 0 1 5.858 5.857v15.721c-.964-.195-3.842-.28-4.825-.264-8.363.136-13.44 4.927-14.135 12.132ZM11.786 21.304a2.196 2.196 0 1 0-4.393 0v5.858a2.196 2.196 0 1 0 4.393 0v-5.858Zm7.322-10.25a2.197 2.197 0 0 0-4.393 0v16.108a2.196 2.196 0 0 0 4.393 0V11.054Zm7.321 4.393a2.196 2.196 0 0 0-4.393 0v11.715a2.197 2.197 0 0 0 4.393 0V15.447Z" fill="#1652F0" fill-rule="nonzero"/><path d="M40.354 45v-1.064c.695-.048 1.266-.23 1.722-.544.616-.435.924-1.076.924-1.934 0-.882-.4-1.56-1.186-2.03-.069-.049-.56-.242-1.46-.593v-2.66c.285.037.513.122.684.255.274.205.445.556.513 1.063h1.3c-.113-.882-.399-1.523-.866-1.91-.4-.338-.947-.543-1.631-.592V34H39.6v.991c-.662.049-1.198.23-1.631.556-.582.423-.867 1.028-.867 1.826 0 .894.387 1.571 1.186 2.03l1.312.508v2.829c-.354-.049-.628-.17-.822-.363-.262-.266-.41-.725-.456-1.354H37c.068.991.342 1.729.821 2.212.41.411 1.004.64 1.78.701V45h.753Zm-.753-6.467c-.776-.314-1.164-.701-1.164-1.16 0-.448.149-.774.457-.968.17-.12.41-.205.707-.241v2.369Zm.753 4.207V40.2c.045.012.08.024.125.048.787.29 1.186.714 1.186 1.258 0 .398-.16.713-.479.93a1.983 1.983 0 0 1-.832.303Z" fill="#FFF" fill-rule="nonzero"/></g></svg>