<svg width="40" height="36" viewBox="0 0 40 36" xmlns="http://www.w3.org/2000/svg"><path d="M15.72 0H2.857C1.286 0 0 1.18 0 2.62v30.76C0 34.82 1.286 36 2.857 36H15.72c1.577 0 2.857-1.171 2.857-2.62V2.62c0-1.446-1.28-2.62-2.857-2.62Zm-4.334 30.027H7.1c-.789 0-1.429-.587-1.429-1.307s.64-1.31 1.429-1.31h4.286c.785 0 1.428.59 1.428 1.31 0 .72-.643 1.307-1.428 1.307Zm0-7.2H7.1c-.789 0-1.429-.587-1.429-1.307s.64-1.31 1.429-1.31h4.286c.785 0 1.428.59 1.428 1.31 0 .72-.643 1.307-1.428 1.307Zm0-7.2H7.1c-.789 0-1.429-.587-1.429-1.307s.64-1.31 1.429-1.31h4.286c.785 0 1.428.59 1.428 1.31 0 .72-.643 1.307-1.428 1.307Zm0-7.2H7.1c-.789 0-1.429-.587-1.429-1.307s.64-1.31 1.429-1.31h4.286c.785 0 1.428.59 1.428 1.31 0 .72-.643 1.307-1.428 1.307Zm25.757 5.317c1.571 0 2.857 1.18 2.857 2.62V33.38c0 1.44-1.286 2.62-2.857 2.62H24.28c-1.577 0-2.857-1.171-2.857-2.62V16.366c0-1.445 1.28-2.617 2.857-2.617h12.863v-.005Zm-4.32 16.283c.786 0 1.428-.587 1.428-1.307s-.642-1.31-1.428-1.31h-4.289c-.785 0-1.428.59-1.428 1.31 0 .72.643 1.307 1.428 1.307h4.289Zm0-7.2c.786 0 1.428-.587 1.428-1.307s-.642-1.31-1.428-1.31h-4.289c-.785 0-1.428.59-1.428 1.31 0 .72.643 1.307 1.428 1.307h4.289Z" fill="#1652F0"/></svg>