<svg width="127" height="127" viewBox="0 0 127 127" xmlns="http://www.w3.org/2000/svg"><path d="M74.125 11 106 42.8v63.6c0 5.565-4.356 10.165-9.833 10.568l-.792.032H31.572c-5.578 0-10.142-4.346-10.545-9.81L21 106.4l.053-84.8c0-5.565 4.303-10.165 9.78-10.568l.792-.032h42.5Zm-5.313 31.8H58.188v22.101c-7.534 2.654-11.936 10.461-10.296 18.262 1.64 7.801 8.814 13.187 16.782 12.598 7.968-.59 14.268-6.971 14.737-14.928l.026-.933-.026-.933a15.912 15.912 0 0 0-9.674-13.706l-.924-.355V58.7h10.624V48.1H68.814v-5.3ZM63.5 74.6a5.315 5.315 0 0 1 4.6 2.65 5.29 5.29 0 0 1 0 5.3 5.315 5.315 0 0 1-4.6 2.65 5.306 5.306 0 0 1-5.312-5.3c0-2.927 2.378-5.3 5.312-5.3Z" fill="#1652F0"/></svg>