<svg xmlns="http://www.w3.org/2000/svg" width="32" height="32" viewBox="0 0 32 32"><script xmlns=""/><path d="M32 27.608a86.426 86.426 0 0 0-4.992-5.466 79.657 79.657 0 0 0-6.122-5.566.507.507 0 0 0-.085-.075 2.637 2.637 0 0 0-3.594.144L2.165 31.758a.778.778 0 0 1-1.091.036 3.593 3.593 0 0 1-.029-5.096L14.13 13.552c.403-.406.653-.916.736-1.443a2.663 2.663 0 0 0-.736-2.332l-4.163-4.18a2.012 2.012 0 0 1 0-2.839l2.16-2.17A2.002 2.002 0 0 1 14.899.53c.835.758.77.654 1.584 1.47C24.355 9.91 29.653 19.014 32 27.608" fill="#1652F0"/></svg>