<svg width="40" height="40" viewBox="0 0 40 40" xmlns="http://www.w3.org/2000/svg"><path d="M33.906 17.955H6.094c-1.09 0-2.045.954-2.045 2.045 0 1.09.954 2.045 2.045 2.045h27.812c1.09 0 2.045-.954 2.045-2.045 0-1.09-.954-2.045-2.045-2.045Zm0 11.861H6.094c-1.09 0-2.045.955-2.045 2.045 0 1.09.954 2.045 2.045 2.045h27.812c1.09 0 2.045-.954 2.045-2.045 0-1.09-.954-2.045-2.045-2.045ZM6.094 10.184h27.812c1.09 0 2.045-.955 2.045-2.045 0-1.09-.954-2.045-2.045-2.045H6.094c-1.09 0-2.045.954-2.045 2.045 0 1.09.954 2.045 2.045 2.045Z" fill="#FFF"/></svg>