<svg xmlns="http://www.w3.org/2000/svg" width="32" height="32" viewBox="0 0 32 32"><script xmlns=""/><path d="M14.036 26.91V5.6c0-1.09-.654-2.036-1.6-2.4-.945-.364-2.109-.218-2.909.51l-4.8 4.58a2.174 2.174 0 0 0-.072 3.055c.8.873 2.181.873 3.054.073L9.6 9.6v17.31c0 1.235.945 2.18 2.182 2.18 1.236 0 2.254-1.017 2.254-2.18Zm3.928-21.82V26.4c0 1.09.654 2.036 1.6 2.4.945.364 2.109.218 2.909-.51l4.8-4.58a2.256 2.256 0 0 0 .654-1.6c0-.51-.218-1.092-.582-1.528-.8-.873-2.181-.873-3.054-.073L22.4 22.327V5.091c0-1.236-.945-2.182-2.182-2.182-1.236 0-2.254 1.018-2.254 2.182Z" fill="#1652F0"/></svg>