<svg xmlns="http://www.w3.org/2000/svg" width="16" height="16" viewBox="0 0 16 16"><script xmlns=""/><g fill="none"><path d="M13.21 14.605a.735.735 0 0 1-.305.712.743.743 0 0 1-.775.069l-3.786-1.822a.738.738 0 0 0-.658 0l-3.79 1.816a.743.743 0 0 1-.774-.07.734.734 0 0 1-.305-.713l.566-4.152a.726.726 0 0 0-.203-.623L.273 6.792a.736.736 0 0 1-.171-.755.74.74 0 0 1 .586-.509l4.137-.745a.734.734 0 0 0 .533-.385L7.352.711a.74.74 0 0 1 .667-.397c.287 0 .531.145.667.399l1.99 3.69a.74.74 0 0 0 .532.386l4.137.75a.74.74 0 0 1 .586.51.733.733 0 0 1-.173.754L12.852 9.83a.726.726 0 0 0-.204.623l.563 4.152Z" fill="#F19927"/><path d="M12.647 10.453a.733.733 0 0 1 .203-.623l2.908-3.027a.733.733 0 0 0 .173-.755.74.74 0 0 0-.586-.509l-4.137-.75a.727.727 0 0 1-.531-.386L8.686.711a.743.743 0 0 0-.667-.398.74.74 0 0 0-.667.396L5.358 4.397a.734.734 0 0 1-.533.384l-4.138.747a.74.74 0 0 0-.585.51.733.733 0 0 0 .173.754l2.906 3.03a.726.726 0 0 1 .203.623l-.34 2.494h9.942l-.34-2.486Z" fill="#FAD97E" opacity=".2"/><path d="M12.647 10.453a.733.733 0 0 1 .203-.623l2.908-3.027a.733.733 0 0 0 .173-.755.74.74 0 0 0-.586-.509l-4.137-.75a.727.727 0 0 1-.531-.386L8.686.711a.743.743 0 0 0-.667-.398.74.74 0 0 0-.667.396L5.358 4.397a.734.734 0 0 1-.533.384l-4.138.747a.74.74 0 0 0-.585.51.733.733 0 0 0 .173.754l2.906 3.03a.726.726 0 0 1 .203.623l-.045.33h9.353l-.045-.322Z" fill="#FAD97E" opacity=".2"/><path d="M15.758 6.803a.733.733 0 0 0 .173-.755.74.74 0 0 0-.586-.509l-4.137-.75a.727.727 0 0 1-.531-.386L8.686.711a.743.743 0 0 0-.667-.398.74.74 0 0 0-.667.396L5.358 4.397a.734.734 0 0 1-.533.384l-4.138.747a.74.74 0 0 0-.585.51.733.733 0 0 0 .173.754L1.327 7.89h13.389l1.042-1.086Z" fill="#FAD97E" opacity=".2"/><path d="m15.347 5.54-4.138-.75a.727.727 0 0 1-.53-.387L8.685.711a.743.743 0 0 0-.667-.398.74.74 0 0 0-.667.396L5.358 4.397a.734.734 0 0 1-.533.384l-4.138.747a.748.748 0 0 0-.387.197h15.423a.747.747 0 0 0-.376-.186Z" fill="#FAD97E" opacity=".2"/><path d="M8.686.71a.743.743 0 0 0-.667-.397.74.74 0 0 0-.667.396l-1.54 2.849h4.411L8.686.71Z" fill="#FAD97E" opacity=".2"/></g></svg>