<svg width="90" height="90" viewBox="0 0 90 90" xmlns="http://www.w3.org/2000/svg"><g fill="none" fill-rule="evenodd"><circle stroke="#D8D8D8" cx="45" cy="45" r="44"/><path d="M37.426 38.25h16.392v2.618H37.426V38.25Zm0 6.851h16.392v2.618H37.426v-2.618Zm2.79-19.563h10.813v2.619H40.216v-2.619Zm0 3.994h10.813v2.618H40.216v-2.618Zm-2.79 22.177h16.392v2.619H37.426v-2.619Zm6.932-26.117h2.618v6.558h-2.618v-6.558Zm10.953 1.853h-1.67v2.486h.296c2.46 0 4.453 2.03 4.453 4.534v21.272c0 2.504-1.994 4.534-4.453 4.534H37.18c-2.46 0-4.453-2.03-4.453-4.534V34.465c0-2.504 1.994-4.534 4.453-4.534h.863v-2.486h-2.237c-2.862 0-5.182 2.362-5.182 5.277V57.48c0 2.914 2.32 5.276 5.182 5.276h19.505c2.862 0 5.182-2.362 5.182-5.276V32.72c0-2.914-2.32-5.276-5.182-5.276Z" fill="#353F52" fill-rule="nonzero"/></g></svg>