<svg xmlns="http://www.w3.org/2000/svg" width="90" height="90" viewBox="0 0 90 90"><script xmlns=""/><g fill="none" fill-rule="evenodd"><circle stroke="#D8D8D8" cx="45" cy="45" r="44"/><g fill="#2C2C2C" fill-rule="nonzero"><path d="M45 67c-12.1 0-22-9.9-22-22s9.9-22 22-22 22 9.9 22 22-9.9 22-22 22Zm0-40.975c-10.45 0-18.975 8.525-18.975 18.975 0 10.45 8.525 18.975 18.975 18.975 10.45 0 18.975-8.525 18.975-18.975 0-10.45-8.525-18.975-18.975-18.975Z"/><path d="M47.2 32.075c1.375.275 1.925 1.925 1.65 3.3-.275 1.375-1.65 2.75-3.3 2.475-1.375-.275-1.925-1.925-1.375-3.575.275-1.375 1.375-2.75 3.025-2.2ZM40.875 42.8s4.4-3.85 6.05-3.025c1.1.275.55 5.5.275 6.325 0 .55-1.1 8.525-.825 8.8.275 1.375.825.275 1.925-.825 0 0 3.025-1.925-.275 2.2-2.475 2.75-4.95 2.475-5.5.275-.275-1.65.825-11 1.1-13.2 0-.825-.825 0-.825 0s-1.925 1.375-2.475.55c-.275-.275 0-.825.55-1.1Z"/></g></g></svg>