<svg xmlns="http://www.w3.org/2000/svg" width="126" height="126" viewBox="0 0 126 126"><script xmlns=""/><g fill="#353F52"><path d="M63 0C28.26 0 0 28.26 0 63c0 34.739 28.261 63 63 63 34.739 0 63-28.261 63-63 0-34.74-28.261-63-63-63Zm0 122.2C30.357 122.2 3.8 95.643 3.8 63 3.8 30.356 30.356 3.8 63 3.8c32.642 0 59.2 26.557 59.2 59.2 0 32.642-26.558 59.2-59.2 59.2Z"/><path d="m93.078 35.718-41.67 42.32-18.442-19.043a5.703 5.703 0 0 0-8.084-.113c-2.27 2.211-2.315 5.85-.119 8.11l22.505 23.25c.014.021.038.021.047.035.014.011.016.045.031.045.365.376.821.598 1.247.849.215.12.389.303.61.388a5.58 5.58 0 0 0 2.159.423 5.72 5.72 0 0 0 2.134-.41c.232-.095.398-.277.607-.39.436-.242.876-.458 1.24-.828.011 0 .016-.032.036-.032a.098.098 0 0 1 .046-.045l45.78-46.482c2.212-2.265 2.195-5.89-.053-8.116a5.684 5.684 0 0 0-8.074.04Z"/></g></svg>