<svg width="54" height="54" viewBox="0 0 54 54" xmlns="http://www.w3.org/2000/svg"><path d="M48 24.204C48 12.494 38.596 3 27 3S6 12.495 6 24.204c0 11.517 9.085 20.883 20.41 21.194L25.068 52 39.22 41.454c5.52-3.984 8.79-10.409 8.78-17.25Zm-9.742 5.77c-.124.294-3.117 7.266-11.172 7.266-8.318 0-11.23-6.983-11.355-7.274a1.48 1.48 0 0 1 .796-1.914 1.427 1.427 0 0 1 1.107.005c.354.15.634.438.776.797.095.236 2.352 5.46 8.665 5.46 6.154 0 8.475-5.413 8.504-5.469a1.448 1.448 0 0 1 1.9-.785 1.467 1.467 0 0 1 .78 1.915Z" fill="#1652F0"/></svg>