<svg xmlns="http://www.w3.org/2000/svg" width="32" height="32" viewBox="0 0 32 32"><script xmlns=""/><path d="M12.075 21.993s.45-5.96 6.038-6.026h3.982V2.698A2.7 2.7 0 0 0 19.461 0h-16.7A2.732 2.732 0 0 0 .82.777 2.722 2.722 0 0 0 0 2.698V32h6.037v-3.982c-.128-6.728 6.038-6.025 6.038-6.025ZM4.05 3.982h14.004v3.973H4.05V3.982Zm0 9.999v-3.974h14.004v3.974H4.05Zm22.03 9.999s-.772-6.214-6.039-6.026c0 0-5.908.131-6.037 6.026 0 0-5.91-.385-6.038 3.981 0 4.808 3.982 3.974 3.982 3.974h16.057s3.983-.131 3.983-3.974c.321-4.872-5.909-3.981-5.909-3.981Z" fill="#1652F0"/></svg>