<svg xmlns="http://www.w3.org/2000/svg" width="32" height="32" viewBox="0 0 32 32"><script xmlns=""/><path d="M3.893 10.575h26.952c.644 0 1.155.656 1.155 1.485 0 .208-.027.38-.107.588L28.48 27.024h-1.29c-.43-1.797-1.747-3.11-3.278-3.11-1.532 0-2.849 1.313-3.279 3.11h-6.368c-.457-1.797-1.747-3.11-3.305-3.11-1.532 0-2.822 1.313-3.279 3.11h-.886l-3.977-16.45-.484-1.796H.775c-.268 0-.59-.311-.671-.657l-.081-.346c-.08-.345.054-.656.35-.656h2.122c.269 0 .565.31.645.656l.08.311.673 2.489Zm20.019 14.099c1.585 0 2.848 1.624 2.848 3.663 0 2.039-1.263 3.663-2.848 3.663-1.586 0-2.849-1.624-2.849-3.663 0-2.039 1.263-3.663 2.849-3.663Zm0 2.73c.403 0 .725.415.725.933s-.322.933-.725.933c-.403 0-.726-.415-.726-.933s.323-.933.726-.933ZM5.262 9.745l4.112-4.838 3.037 4.216L18.564 0l4.703 6.946 4.514-3.317 2.714 5.218.161.898H5.263Zm5.698 14.929c1.585 0 2.875 1.624 2.875 3.663 0 2.039-1.29 3.663-2.875 3.663-1.56 0-2.85-1.624-2.85-3.663 0-2.039 1.29-3.663 2.849-3.663Zm0 2.73c.403 0 .725.415.725.933s-.322.933-.725.933c-.377 0-.726-.415-.726-.933s.35-.933.726-.933Z" fill="#1652F0"/></svg>