<svg xmlns="http://www.w3.org/2000/svg" width="40" height="40" viewBox="0 0 40 40"><script xmlns=""/><path d="M13.115 13.863h14.901v2.38H13.115v-2.38Zm0 6.229h14.901v2.38H13.115v-2.38ZM15.65 2.308h9.83v2.38h-9.83v-2.38Zm0 3.63h9.83v2.38h-9.83v-2.38ZM13.115 26.1h14.901v2.38H13.115V26.1Zm6.301-23.743h2.38v5.961h-2.38V2.357Zm9.957 1.684h-1.517v2.26h.269c2.235 0 4.048 1.845 4.048 4.122V29.76c0 2.276-1.813 4.121-4.048 4.121H12.89c-2.236 0-4.048-1.845-4.048-4.12v-19.34c0-2.276 1.812-4.12 4.048-4.12h.785V4.04h-2.034c-2.602 0-4.711 2.148-4.711 4.797v22.508c0 2.65 2.11 4.797 4.711 4.797h17.731c2.602 0 4.711-2.148 4.711-4.797V8.838c0-2.65-2.109-4.797-4.71-4.797Z" fill="#353F52"/></svg>