<svg width="40" height="40" viewBox="0 0 40 40" xmlns="http://www.w3.org/2000/svg"><path d="M19.797 4.184c-8.625 0-15.613 6.988-15.613 15.613S11.172 35.41 19.797 35.41 35.41 28.422 35.41 19.797c.004-8.621-6.988-15.613-15.613-15.613Zm9.52 15.789-8.266 6.156a.867.867 0 0 1-1.395-.625v-3.035h-2.304c-2.864 0-5.454 1.11-7.38 2.922a.362.362 0 0 1-.586-.281c0-.02.005-.04.005-.06.964-4.741 5.242-8.34 10.265-8.538v-3.063a.87.87 0 0 1 .867-.804c.188 0 .368.062.508.168l8.293 6.175a.658.658 0 0 1 .227.489.63.63 0 0 1-.235.496Z" fill="#1652F0"/></svg>