<svg width="40" height="40" viewBox="0 0 40 40" xmlns="http://www.w3.org/2000/svg"><path d="M32.5 1.667a5 5 0 0 1 5 5v26.666a5 5 0 0 1-5 5H10.833a5.001 5.001 0 0 1-4.93-4.166h2.014a3.75 3.75 0 0 0 .176-7.496l-.176-.004H5.833V23.75h2.084a3.75 3.75 0 0 0 3.745-3.573l.005-.177a3.75 3.75 0 0 0-3.574-3.746l-.176-.004H5.833v-2.917h2.084a3.75 3.75 0 0 0 3.745-3.573l.005-.177a3.75 3.75 0 0 0-3.574-3.745l-.176-.005H5.903a5.001 5.001 0 0 1 4.93-4.166H32.5Zm-24.583 27.5a1.25 1.25 0 1 1 0 2.5H3.75a1.25 1.25 0 0 1 0-2.5h4.167ZM31.583 11.75a2.5 2.5 0 0 0-3.535 0L16.07 23.728a1.667 1.667 0 0 0-.474.955l-.337 2.494a.833.833 0 0 0 .95.936l2.456-.37c.352-.053.679-.218.93-.47l11.986-11.986a2.5 2.5 0 0 0 0-3.535l.001-.002Zm-23.666 7a1.25 1.25 0 0 1 0 2.5H3.75a1.25 1.25 0 0 1 0-2.5h4.167Zm0-10.417a1.25 1.25 0 1 1 0 2.5H3.75a1.25 1.25 0 1 1 0-2.5h4.167Z" fill="#1652F0"/></svg>