<svg xmlns="http://www.w3.org/2000/svg" width="56" height="56" viewBox="0 0 56 56"><script xmlns=""/><g fill="none" fill-rule="evenodd"><rect fill="#527FF6" opacity=".972" width="56" height="56" rx="10"/><g fill="#FFF" fill-rule="nonzero"><path d="M42.8 12.855a3.503 3.503 0 0 0-4.283-2.469l-22.8 6.1a3.509 3.509 0 0 0-1.182.57h29.399l-1.133-4.2Zm3.867 15.435v-5.924c0-1.955-1.565-3.538-3.505-3.538H12.831c-1.891 0-3.421 1.512-3.498 3.405v19.162c.07 1.893 1.607 3.405 3.498 3.405h30.338c1.933 0 3.498-1.583 3.498-3.538v-5.917a4.057 4.057 0 0 1-.292.014h-7.003c-1.933 0-3.497-1.582-3.497-3.538 0-1.956 1.564-3.538 3.497-3.538h7.003c.097-.008.194 0 .292.007Z"/><path d="M37.984 31.96c0 .734.583 1.329 1.303 1.329s1.296-.595 1.302-1.328c0-.734-.583-1.329-1.302-1.329-.72 0-1.303.595-1.303 1.329Z"/></g></g></svg>