<svg width="54" height="54" viewBox="0 0 54 54" xmlns="http://www.w3.org/2000/svg"><g fill="#1652F0"><path d="M43 3H11c-4.42 0-8 3.58-8 8v32a8 8 0 0 0 8 8h32a8 8 0 0 0 8-7.999v-6.667H32.335c-4.42 0-8.001-4.182-8.001-9.334 0-5.156 3.58-9.333 8-9.333H51V11c0-4.42-3.58-8-8-8"/><path d="M28 27c0 2.708 1.858 5 4.06 5H51V22H32.06C29.857 22 28 24.287 28 27m5.413-.625c0-1.035.91-1.875 2.028-1.875h1.353c1.12 0 2.03.84 2.03 1.875v1.25c0 1.034-.91 1.874-2.03 1.874h-1.353c-1.119 0-2.028-.84-2.028-1.874v-1.25Z"/></g></svg>