<svg width="54" height="54" viewBox="0 0 54 54" xmlns="http://www.w3.org/2000/svg"><path d="M7.364 3h39.272A4.364 4.364 0 0 1 51 7.364v13.09a4.364 4.364 0 0 1-4.364 4.364H7.364A4.364 4.364 0 0 1 3 20.455V7.364A4.364 4.364 0 0 1 7.364 3ZM40.09 18.273a4.364 4.364 0 1 0 0-8.728 4.364 4.364 0 0 0 0 8.728Zm-28.364-6.546a2.182 2.182 0 1 0 0 4.364H27a2.182 2.182 0 0 0 0-4.364H11.727ZM7.364 29.182h39.272A4.364 4.364 0 0 1 51 33.545v13.091A4.364 4.364 0 0 1 46.636 51H7.364A4.364 4.364 0 0 1 3 46.636v-13.09a4.364 4.364 0 0 1 4.364-4.364Zm4.363 8.727a2.182 2.182 0 0 0 0 4.364H27a2.182 2.182 0 0 0 0-4.364H11.727Zm26.182 6.546a4.364 4.364 0 1 0 0-8.728 4.364 4.364 0 0 0 0 8.728Z" fill="#1652F0"/></svg>