<svg width="40" height="40" viewBox="0 0 40 40" xmlns="http://www.w3.org/2000/svg"><path d="M37.176 16.75a.937.937 0 0 0-.028-.164v-.031l-.015-.086c-.278-1.352-1.172-2.223-2.285-2.223h-.184a3.443 3.443 0 0 1-3.437-3.437c0-.438.203-1.059.289-1.278.539-1.258-.036-2.691-1.368-3.422l-4.191-2.37-.078-.028c-.313-.102-.676-.223-1.082-.223-.758 0-1.61.352-2.137.88-.66.652-2 1.624-2.797 1.624-.793 0-2.136-.969-2.797-1.625a3.068 3.068 0 0 0-2.136-.879c-.418 0-.77.117-1.082.223l-.07.027-4.395 2.38-.028.015c-1.066.668-1.5 2.199-.957 3.414l.008.015.008.016c.086.192.352.84.352 1.406a3.443 3.443 0 0 1-3.438 3.438h-.183c-1.165 0-2.036.86-2.286 2.238l-.015.078v.028c0 .039-.016.093-.028.164-.097.59-.332 1.98-.332 3.117s.23 2.527.332 3.117c.008.07.016.129.028.164v.031l.015.086c.278 1.352 1.172 2.223 2.286 2.223h.093a3.443 3.443 0 0 1 3.438 3.437c0 .438-.203 1.06-.29 1.278-.519 1.183-.027 2.703 1.122 3.469l.031.015 4.14 2.305.079.027c.312.102.668.223 1.074.223.867 0 1.648-.332 2.137-.879.047-.035.093-.082.148-.129.5-.437 1.844-1.594 2.73-1.594.66 0 1.766.692 2.88 1.805.562.555 1.34.879 2.136.879.54 0 .938-.149 1.39-.371l.017-.008 4.246-2.348.015-.015c1.067-.668 1.5-2.2.957-3.414l-.008-.016-.007-.016c-.008-.003-.34-.695-.278-1.316l.008-.04v-.038a3.443 3.443 0 0 1 3.438-3.438h.195c1.164 0 2.035-.859 2.285-2.238l.016-.078v-.027c.008-.032.015-.078.027-.141.102-.574.336-1.914.336-3.14.008-1.133-.223-2.52-.324-3.11Zm-17.188 8.688A5.436 5.436 0 0 1 14.551 20a5.436 5.436 0 0 1 5.437-5.438A5.436 5.436 0 0 1 25.426 20a5.436 5.436 0 0 1-5.438 5.438Z" fill="#1652F0"/></svg>